<svg display="none" xmlns="http://www.w3.org/2000/svg">
    <symbol id="settings" viewBox="0 0 400 400">
        <path d="M175.970 4.883 C 173.738 7.661,166.140 25.294,157.810 47.026 L 153.709 57.724 141.682 62.546 L 129.654 67.368 113.876 60.939 C 92.389 52.183,77.785 46.875,75.181 46.875 C 71.022 46.875,41.914 76.054,42.406 79.729 C 42.829 82.879,49.878 99.887,58.529 118.631 C 65.151 132.980,65.060 129.958,59.283 143.723 L 54.504 155.111 37.213 161.963 C 27.703 165.732,15.527 170.828,10.156 173.288 L 0.391 177.761 0.184 200.580 L -0.024 223.399 3.699 225.279 C 9.296 228.104,23.751 233.927,39.063 239.524 C 46.582 242.273,53.204 244.789,53.777 245.116 C 54.351 245.443,57.024 250.943,59.717 257.337 L 64.613 268.963 59.180 281.552 C 52.288 297.519,44.049 318.407,43.395 321.571 C 42.637 325.235,73.169 355.060,77.036 354.434 C 80.387 353.891,94.215 348.401,113.631 339.906 L 129.997 332.745 142.037 337.661 L 154.076 342.578 160.468 357.813 C 168.074 375.943,174.425 390.050,176.564 393.566 L 178.116 396.117 200.948 395.910 L 223.779 395.703 225.553 392.578 C 227.890 388.461,235.371 370.710,241.419 354.932 L 246.266 342.286 258.333 337.448 C 270.271 332.662,270.431 332.623,273.286 333.788 C 313.232 350.094,324.551 354.202,326.564 353.124 C 327.284 352.739,334.646 345.830,342.925 337.771 C 357.812 323.278,357.971 323.088,357.592 320.257 C 357.171 317.120,350.110 300.086,341.471 281.369 C 334.849 267.019,334.939 270.038,340.720 256.294 L 345.503 244.922 362.009 238.392 C 371.088 234.800,383.262 229.697,389.063 227.052 L 399.609 222.242 399.816 199.422 L 400.024 176.601 396.188 174.657 C 391.371 172.216,372.659 164.755,357.813 159.356 C 344.172 154.395,345.701 155.840,340.340 142.839 C 335.018 129.933,335.021 132.109,340.314 119.878 C 346.334 105.971,356.000 81.381,356.607 78.429 C 357.388 74.639,326.816 44.942,322.804 45.592 C 319.594 46.112,302.534 52.941,284.056 61.102 L 270.066 67.281 257.995 62.351 L 245.924 57.422 239.532 42.188 C 231.935 24.077,225.576 9.951,223.443 6.445 L 221.898 3.906 199.326 3.906 C 182.207 3.906,176.564 4.142,175.970 4.883 M208.342 138.339 C 259.790 145.404,281.627 206.234,245.771 242.600 C 210.559 278.312,150.388 262.563,138.236 214.453 C 127.710 172.782,164.925 132.377,208.342 138.339"></path>
    </symbol> 
    <symbol id="location" viewBox="0 0 24 24">
        <path d="M12 3c2.131 0 4 1.73 4 3.702 0 2.05-1.714 4.941-4 8.561-2.286-3.62-4-6.511-4-8.561 0-1.972 1.869-3.702 4-3.702zm0-2c-3.148 0-6 2.553-6 5.702 0 3.148 2.602 6.907 6 12.298 3.398-5.391 6-9.15 6-12.298 0-3.149-2.851-5.702-6-5.702zm0 8c-1.105 0-2-.895-2-2s.895-2 2-2 2 .895 2 2-.895 2-2 2zm8 6h-3.135c-.385.641-.798 1.309-1.232 2h3.131l.5 1h-4.264l-.344.544-.289.456h.558l.858 2h-7.488l.858-2h.479l-.289-.456-.343-.544h-2.042l-1.011-1h2.42c-.435-.691-.848-1.359-1.232-2h-3.135l-4 8h24l-4-8zm-12.794 6h-3.97l1.764-3.528 1.516 1.528h1.549l-.859 2zm8.808-2h3.75l1 2h-3.892l-.858-2z"/>
    </symbol>    
</svg>